<svg width="130" height="48" viewBox="0 0 130 48" fill="none" xmlns="http://www.w3.org/2000/svg">
<path d="M47.7228 23.8614C47.7228 10.6831 37.0397 -8.11559e-07 23.8614 -2.35518e-07C10.6831 3.40524e-07 -1.61906e-06 10.6831 -1.04302e-06 23.8614C-4.66974e-07 37.0397 10.6831 47.7228 23.8614 47.7228C37.0397 47.7228 47.7228 37.0397 47.7228 23.8614Z" fill="#3B38B4"/>
<path fill-rule="evenodd" clip-rule="evenodd" d="M45.0085 23.8614C45.0085 12.1822 35.5406 2.71433 23.8614 2.71433C12.1822 2.71433 2.71433 12.1822 2.71433 23.8614C2.71433 35.5406 12.1822 45.0085 23.8614 45.0085C35.5406 45.0085 45.0085 35.5406 45.0085 23.8614ZM23.8614 -2.35518e-07C37.0397 -8.11559e-07 47.7228 10.6831 47.7228 23.8614C47.7228 37.0397 37.0397 47.7228 23.8614 47.7228C10.6831 47.7228 -4.66974e-07 37.0397 -1.04302e-06 23.8614C-1.61906e-06 10.6831 10.6831 3.40524e-07 23.8614 -2.35518e-07Z" fill="white"/>
<path d="M29.3999 34.5863H18.1728C14.6197 34.5863 11.4366 32.8344 10.0795 30.1448C8.99376 27.9981 9.21584 25.6293 10.6717 23.6306L16.2729 15.9814C17.8767 13.81 20.665 12.5022 23.7741 12.5022C26.8831 12.5022 29.6714 13.81 31.2752 15.9814L36.8765 23.6306C38.3323 25.6293 38.5544 27.9981 37.4687 30.1448C36.1362 32.8344 32.9531 34.5863 29.3999 34.5863ZM23.7987 15.4632C21.6273 15.4632 19.7027 16.3021 18.6663 17.7333L13.0651 25.3825C12.0535 26.7643 12.3249 28.0228 12.7197 28.837C13.5833 30.5643 15.7547 31.6746 18.1975 31.6746H29.4246C31.8921 31.6746 34.0388 30.5643 34.9025 28.837C35.3219 28.0228 35.5934 26.789 34.557 25.3825L28.9558 17.7333C27.8948 16.3021 25.9701 15.4632 23.7987 15.4632Z" fill="#FF5F69"/>
<path d="M19.2805 29.1079C20.725 29.1079 21.896 27.9369 21.896 26.4924C21.896 25.0479 20.725 23.8768 19.2805 23.8768C17.8359 23.8768 16.6649 25.0479 16.6649 26.4924C16.6649 27.9369 17.8359 29.1079 19.2805 29.1079Z" fill="white"/>
<path d="M66.6081 22.1248H61.303V4.03806H74.8742V8.30682H66.6081V10.9717H73.0729V15.2158H66.6081V22.1248Z" fill="#FF5F69"/>
<path d="M99.8217 8.38084H94.6646V4.03806H110.407V8.38084H105.127V22.1248H99.8217V8.38084Z" fill="#FF5F69"/>
<path d="M120.352 3.79181C126.052 3.79181 130 7.61642 130 13.0943C130 18.5968 126.077 22.4214 120.352 22.4214C114.603 22.4214 110.655 18.5968 110.655 13.0943C110.655 7.59175 114.603 3.79181 120.352 3.79181ZM120.377 17.6591C122.918 17.6591 124.621 15.7838 124.621 13.0696C124.621 10.38 122.918 8.55407 120.377 8.55407C117.786 8.55407 116.034 10.38 116.034 13.0696C116.034 15.8085 117.761 17.6591 120.377 17.6591Z" fill="#FF5F69"/>
<path d="M66.6081 38.8058V43.6668H61.303V25.5801H70.4574C74.9729 25.5801 77.4897 28.4424 77.4897 32.0943C77.4897 35.7708 74.9482 38.8058 70.4574 38.8058H66.6081ZM66.6081 29.9475V34.4137H69.5444C71.0989 34.4137 72.1106 33.6488 72.1106 32.1683C72.1106 30.6138 71.173 29.9229 69.5444 29.9229H66.6081V29.9475Z" fill="#3B38B4"/>
<path d="M92.269 43.6668H78.2783V25.5801H83.5834V39.4227H92.269V43.6668Z" fill="#3B38B4"/>
<path d="M101.969 25.3086C96.2193 25.3086 92.2713 29.1085 92.2713 34.5863C92.2713 40.0889 96.2193 43.9135 101.969 43.9135C107.668 43.9135 111.616 40.0889 111.616 34.5863C111.592 29.1332 107.668 25.3086 101.969 25.3086ZM101.993 39.2006C99.4024 39.2006 97.6504 37.3253 97.6504 34.611C97.6504 31.9214 99.4024 30.0955 101.993 30.0955C104.535 30.0955 106.237 31.9214 106.237 34.611C106.213 37.3253 104.535 39.2006 101.993 39.2006Z" fill="#3B38B4"/>
<path d="M85.286 3.79181C79.5367 3.79181 75.5887 7.59175 75.5887 13.0696C75.5887 18.5721 79.5367 22.3967 85.286 22.3967C90.9859 22.3967 94.9339 18.5721 94.9339 13.0696C94.9339 7.59175 91.0106 3.79181 85.286 3.79181ZM85.3107 17.6591C82.7198 17.6591 80.9679 15.7838 80.9679 13.0696C80.9679 10.38 82.7198 8.55407 85.3107 8.55407C87.8522 8.55407 89.5548 10.38 89.5548 13.0696C89.5548 15.8085 87.8522 17.6591 85.3107 17.6591Z" fill="#FF5F69"/>
<path d="M123.14 25.3086C124.991 25.3086 126.792 25.6047 128.766 26.4189L128.396 30.9591C127.137 30.3423 125.459 29.8981 123.658 29.8981C120.648 29.8981 117.86 31.1565 117.86 34.537C117.86 37.7941 120.598 39.2993 123.633 39.2993C125.385 39.2993 126.792 38.8798 128.396 37.8928L129.21 42.359C126.915 43.6174 124.843 43.9135 122.548 43.9135C116.971 43.9135 112.431 40.3109 112.431 34.611C112.406 28.3929 117.391 25.3332 123.14 25.3086Z" fill="#3B38B4"/>
</svg>
