<svg width="18" height="18" viewBox="0 0 18 18" fill="none" xmlns="http://www.w3.org/2000/svg">
<path d="M9.00006 11.1818C10.205 11.1818 11.1819 10.205 11.1819 8.99999C11.1819 7.795 10.205 6.81817 9.00006 6.81817C7.79507 6.81817 6.81824 7.795 6.81824 8.99999C6.81824 10.205 7.79507 11.1818 9.00006 11.1818Z" stroke="#4E3CC9" stroke-width="2" stroke-linecap="round" stroke-linejoin="round"/>
<path d="M14.3818 11.1818C14.285 11.4012 14.2561 11.6445 14.2989 11.8804C14.3417 12.1163 14.4542 12.334 14.6218 12.5054L14.6655 12.5491C14.8007 12.6842 14.908 12.8446 14.9812 13.0212C15.0544 13.1977 15.0921 13.387 15.0921 13.5782C15.0921 13.7693 15.0544 13.9586 14.9812 14.1352C14.908 14.3118 14.8007 14.4722 14.6655 14.6073C14.5304 14.7425 14.3699 14.8498 14.1934 14.923C14.0168 14.9962 13.8275 15.0339 13.6364 15.0339C13.4452 15.0339 13.2559 14.9962 13.0794 14.923C12.9028 14.8498 12.7424 14.7425 12.6073 14.6073L12.5636 14.5636C12.3922 14.396 12.1745 14.2835 11.9386 14.2407C11.7027 14.1979 11.4594 14.2268 11.24 14.3236C11.0249 14.4158 10.8414 14.5689 10.7122 14.764C10.583 14.9591 10.5137 15.1878 10.5127 15.4218V15.5454C10.5127 15.9312 10.3595 16.3012 10.0867 16.574C9.81392 16.8467 9.44395 17 9.05818 17C8.67241 17 8.30244 16.8467 8.02966 16.574C7.75688 16.3012 7.60364 15.9312 7.60364 15.5454V15.48C7.59801 15.2393 7.52009 15.0058 7.38001 14.8099C7.23993 14.6141 7.04417 14.4649 6.81818 14.3818C6.59882 14.285 6.3555 14.2561 6.11957 14.2989C5.88365 14.3417 5.66595 14.4541 5.49455 14.6218L5.45091 14.6654C5.31582 14.8007 5.1554 14.908 4.97882 14.9812C4.80224 15.0544 4.61297 15.092 4.42182 15.092C4.23067 15.092 4.04139 15.0544 3.86481 14.9812C3.68824 14.908 3.52782 14.8007 3.39273 14.6654C3.25749 14.5304 3.1502 14.3699 3.077 14.1934C3.00381 14.0168 2.96613 13.8275 2.96613 13.6363C2.96613 13.4452 3.00381 13.2559 3.077 13.0793C3.1502 12.9028 3.25749 12.7423 3.39273 12.6073L3.43636 12.5636C3.60403 12.3922 3.7165 12.1745 3.75928 11.9386C3.80205 11.7027 3.77317 11.4593 3.67636 11.24C3.58417 11.0249 3.43109 10.8414 3.23597 10.7122C3.04085 10.583 2.81221 10.5136 2.57818 10.5127H2.45455C2.06878 10.5127 1.69881 10.3595 1.42603 10.0867C1.15325 9.81391 1 9.44394 1 9.05817C1 8.6724 1.15325 8.30243 1.42603 8.02965C1.69881 7.75687 2.06878 7.60362 2.45455 7.60362H2.52C2.76072 7.59799 2.99419 7.52007 3.19004 7.37999C3.38589 7.23991 3.53507 7.04416 3.61818 6.81817C3.71499 6.59881 3.74387 6.35548 3.70109 6.11956C3.65832 5.88363 3.54585 5.66593 3.37818 5.49453L3.33455 5.45089C3.19931 5.31581 3.09202 5.15539 3.01882 4.97881C2.94562 4.80223 2.90795 4.61295 2.90795 4.4218C2.90795 4.23065 2.94562 4.04138 3.01882 3.8648C3.09202 3.68822 3.19931 3.5278 3.33455 3.39271C3.46963 3.25747 3.63005 3.15019 3.80663 3.07699C3.98321 3.00379 4.17249 2.96611 4.36364 2.96611C4.55479 2.96611 4.74406 3.00379 4.92064 3.07699C5.09722 3.15019 5.25764 3.25747 5.39273 3.39271L5.43636 3.43635C5.60777 3.60401 5.82547 3.71648 6.06139 3.75926C6.29731 3.80204 6.54064 3.77316 6.76 3.67635H6.81818C7.03329 3.58416 7.21674 3.43108 7.34596 3.23596C7.47518 3.04084 7.54452 2.81219 7.54545 2.57817V2.45453C7.54545 2.06876 7.6987 1.69879 7.97148 1.42601C8.24426 1.15323 8.61423 0.999985 9 0.999985C9.38577 0.999985 9.75574 1.15323 10.0285 1.42601C10.3013 1.69879 10.4545 2.06876 10.4545 2.45453V2.51998C10.4555 2.75401 10.5248 2.98266 10.654 3.17778C10.7833 3.3729 10.9667 3.52598 11.1818 3.61817C11.4012 3.71498 11.6445 3.74386 11.8804 3.70108C12.1164 3.6583 12.3341 3.54583 12.5055 3.37817L12.5491 3.33453C12.6842 3.19929 12.8446 3.09201 13.0212 3.01881C13.1978 2.94561 13.387 2.90793 13.5782 2.90793C13.7693 2.90793 13.9586 2.94561 14.1352 3.01881C14.3118 3.09201 14.4722 3.19929 14.6073 3.33453C14.7425 3.46962 14.8498 3.63004 14.923 3.80662C14.9962 3.9832 15.0339 4.17247 15.0339 4.36362C15.0339 4.55477 14.9962 4.74405 14.923 4.92063C14.8498 5.0972 14.7425 5.25762 14.6073 5.39271L14.5636 5.43635C14.396 5.60775 14.2835 5.82545 14.2407 6.06137C14.1979 6.2973 14.2268 6.54063 14.3236 6.75998V6.81817C14.4158 7.03327 14.5689 7.21672 14.764 7.34594C14.9591 7.47516 15.1878 7.54451 15.4218 7.54544H15.5455C15.9312 7.54544 16.3012 7.69869 16.574 7.97147C16.8468 8.24425 17 8.61422 17 8.99998C17 9.38575 16.8468 9.75572 16.574 10.0285C16.3012 10.3013 15.9312 10.4545 15.5455 10.4545H15.48C15.246 10.4555 15.0173 10.5248 14.8222 10.654C14.6271 10.7832 14.474 10.9667 14.3818 11.1818V11.1818Z" stroke="#4E3CC9" stroke-width="2" stroke-linecap="round" stroke-linejoin="round"/>
</svg>
