<svg width="208" height="208" viewBox="0 0 208 208" fill="none" xmlns="http://www.w3.org/2000/svg">
<path d="M104 0C83.4308 0 63.3235 6.09949 46.2207 17.5272C29.118 28.9548 15.7881 45.1974 7.91658 64.2009C0.0450616 83.2044 -2.01449 104.115 1.99838 124.289C6.01124 144.463 15.9163 162.994 30.4609 177.539C45.0056 192.084 63.5366 201.989 83.7107 206.002C103.885 210.015 124.796 207.955 143.799 200.083C162.803 192.212 179.045 178.882 190.473 161.779C201.901 144.677 208 124.569 208 104C207.974 76.4256 197.008 49.9882 177.51 30.4901C158.012 10.9921 131.574 0.0264757 104 0V0ZM104 192C86.5953 192 69.5814 186.839 55.1099 177.169C40.6383 167.5 29.3592 153.756 22.6986 137.676C16.0381 121.596 14.2954 103.902 17.6909 86.8321C21.0864 69.7617 29.4676 54.0816 41.7747 41.7746C54.0817 29.4676 69.7618 21.0864 86.8321 17.6909C103.902 14.2954 121.596 16.0381 137.676 22.6986C153.756 29.3591 167.5 40.6383 177.169 55.1098C186.839 69.5813 192 86.5952 192 104C191.974 127.331 182.694 149.699 166.196 166.196C149.699 182.694 127.331 191.974 104 192V192ZM116 156C116 158.373 115.296 160.693 113.978 162.667C112.659 164.64 110.785 166.178 108.592 167.087C106.4 167.995 103.987 168.232 101.659 167.769C99.3312 167.306 97.193 166.164 95.5148 164.485C93.8365 162.807 92.6936 160.669 92.2306 158.341C91.7676 156.013 92.0052 153.601 92.9135 151.408C93.8217 149.215 95.3598 147.341 97.3332 146.022C99.3066 144.704 101.627 144 104 144C107.183 144 110.235 145.264 112.485 147.515C114.736 149.765 116 152.817 116 156ZM140 84C140 92.1574 137.23 100.073 132.143 106.45C127.056 112.827 119.954 117.287 112 119.1V120C112 122.122 111.157 124.157 109.657 125.657C108.157 127.157 106.122 128 104 128C101.878 128 99.8435 127.157 98.3432 125.657C96.8429 124.157 96 122.122 96 120V112C96 109.878 96.8429 107.843 98.3432 106.343C99.8435 104.843 101.878 104 104 104C107.956 104 111.822 102.827 115.111 100.629C118.4 98.4318 120.964 95.3082 122.478 91.6537C123.991 87.9991 124.387 83.9778 123.616 80.0982C122.844 76.2186 120.939 72.6549 118.142 69.8579C115.345 67.0608 111.781 65.156 107.902 64.3843C104.022 63.6126 100.001 64.0087 96.3464 65.5224C92.6919 67.0362 89.5683 69.5996 87.3707 72.8886C85.173 76.1776 84 80.0444 84 84C84 86.1217 83.1572 88.1566 81.6569 89.6569C80.1566 91.1571 78.1218 92 76 92C73.8783 92 71.8435 91.1571 70.3432 89.6569C68.8429 88.1566 68 86.1217 68 84C68 74.4522 71.7929 65.2955 78.5442 58.5442C85.2955 51.7928 94.4523 48 104 48C113.548 48 122.705 51.7928 129.456 58.5442C136.207 65.2955 140 74.4522 140 84V84Z" fill="#A093EF"/>
</svg>
