<svg xmlns="http://www.w3.org/2000/svg" xmlns:xlink="http://www.w3.org/1999/xlink" width="18" height="18" version="1.1"><rect id="backgroundrect" width="100%" height="100%" x="0" y="0" fill="none" stroke="none"/>

<g class="currentLayer" style=""><title>Layer 1</title><g id="surface1" class="" fill-opacity="1" fill="#3b38b4">
<path style="stroke: none; fill-rule: nonzero; fill-opacity: 1;" d="M8.242424249649048,0 C6.461174249649048,0 4.722893249649048,0.527344 3.242424249649048,1.515625 C1.7619552496490476,2.5039059999999997 0.6096122496490479,3.9101559999999997 -0.073981750350952,5.5546880000000005 C-0.7536695003509521,7.199219 -0.9333567503509521,9.011719 -0.5857007503509521,10.753906 C-0.23804475035095218,12.5 0.621330249649048,14.105469 1.879143249649048,15.363281 C3.136955249649048,16.621094 4.742424249649048,17.480469 6.488518249649048,17.828125 C8.230705249649048,18.175781 10.043205249649048,17.996094 11.687736249649047,17.316406 C13.332268249649047,16.632812 14.738518249649047,15.480469 15.726799249649048,14 C16.71508024964905,12.519531 17.242424249649048,10.78125 17.242424249649048,9 C17.238518249649047,6.613281 16.289299249649048,4.324219 14.605705249649048,2.6367190000000003 C12.918205249649048,0.9531250000000001 10.629143249649047,0.003906250000000001 8.242424249649048,0 zM8.242424249649048,16.617188 C6.734612249649048,16.617188 5.261955249649048,16.167969 4.011955249649048,15.332031 C2.758049249649048,14.496094 1.7814862496490478,13.304688 1.207268249649048,11.914062 C0.6291432496490479,10.523438 0.4807052496490478,8.992188 0.7736742496490479,7.515625 C1.0666432496490479,6.035156 1.793205249649048,4.6796880000000005 2.855705249649048,3.613281 C3.9221122496490484,2.550781 5.277580249649048,1.824219 6.758049249649048,1.53125 C8.234612249649048,1.238281 9.765862249649048,1.386719 11.156486249649047,1.9648440000000003 C12.547112249649048,2.539062 13.738518249649047,3.515625 14.574455249649048,4.769531 C15.410393249649047,6.019531 15.859612249649047,7.4921880000000005 15.859612249649047,9 C15.855705249649048,11.019531 15.051018249649047,12.953125 13.625236249649047,14.382812 C12.195549249649048,15.808594 10.261955249649048,16.613281 8.242424249649048,16.617188 zM9.281486249649047,13.5 C9.281486249649047,13.707031 9.218986249649047,13.90625 9.105705249649048,14.078125 C8.992424249649048,14.246094 8.828362249649048,14.378906 8.640862249649048,14.460938 C8.449455249649048,14.539062 8.242424249649048,14.558594 8.039299249649048,14.519531 C7.8400802496490485,14.476562 7.6525802496490485,14.378906 7.508049249649048,14.234375 C7.363518249649047,14.089844 7.265862249649048,13.902344 7.222893249649048,13.703125 C7.183830249649048,13.5 7.203362249649048,13.292969 7.281486249649047,13.101562 C7.363518249649047,12.914062 7.4963302496490485,12.75 7.664299249649048,12.636719 C7.836174249649048,12.523438 8.035393249649047,12.460938 8.242424249649048,12.460938 C8.519768249649047,12.460938 8.781486249649047,12.570312 8.976799249649048,12.765625 C9.172112249649048,12.960938 9.281486249649047,13.222656 9.281486249649047,13.5 zM11.359612249649048,7.269531 C11.359612249649048,7.9765619999999995 11.117424249649048,8.660156 10.676018249649047,9.210938 C10.238518249649047,9.765625 9.621330249649048,10.148438 8.933830249649048,10.308594 L8.933830249649048,10.382812 C8.933830249649048,10.566406 8.863518249649047,10.746094 8.730705249649048,10.875 C8.601799249649048,11.003906 8.426018249649047,11.078125 8.242424249649048,11.078125 C8.058830249649048,11.078125 7.883049249649048,11.003906 7.754143249649047,10.875 C7.6213302496490485,10.746094 7.551018249649047,10.566406 7.551018249649047,10.382812 L7.551018249649047,9.691406 C7.551018249649047,9.507812 7.6213302496490485,9.332031 7.754143249649047,9.203125 C7.883049249649048,9.074219 8.058830249649048,9 8.242424249649048,9 C8.586174249649048,9 8.918205249649048,8.898438 9.203362249649048,8.707031 C9.488518249649047,8.519531 9.711174249649048,8.246094 9.840080249649048,7.9296880000000005 C9.972893249649047,7.6171880000000005 10.008049249649048,7.265625 9.941643249649047,6.9296880000000005 C9.871330249649048,6.597656 9.707268249649047,6.289062 9.465080249649048,6.046875 C9.222893249649047,5.8046880000000005 8.914299249649048,5.636719 8.578362249649048,5.5703119999999995 C8.242424249649048,5.503906 7.894768249649047,5.5390619999999995 7.578362249649048,5.671875 C7.2619552496490485,5.800781 6.992424249649048,6.023438 6.804924249649048,6.308594 C6.613518249649048,6.59375 6.511955249649048,6.925781 6.511955249649048,7.269531 C6.511955249649048,7.453125 6.437736249649048,7.628906 6.308830249649048,7.757812 C6.179924249649048,7.886719 6.004143249649048,7.9609380000000005 5.820549249649048,7.9609380000000005 C5.636955249649048,7.9609380000000005 5.461174249649048,7.886719 5.3283622496490475,7.757812 C5.199455249649048,7.628906 5.125236249649048,7.453125 5.125236249649048,7.269531 C5.125236249649048,6.441406 5.4533622496490475,5.652344 6.039299249649048,5.066406 C6.625236249649048,4.480469 7.414299249649048,4.152344 8.242424249649048,4.152344 C9.070549249649048,4.152344 9.859612249649048,4.480469 10.445549249649048,5.066406 C11.031486249649047,5.652344 11.359612249649048,6.441406 11.359612249649048,7.269531 zM11.359612249649048,7.269531 " id="svg_1" fill="#3b38b4"/>
</g></g></svg>