<?xml version="1.0" standalone="no"?>
<!DOCTYPE svg PUBLIC "-//W3C//DTD SVG 20010904//EN"
 "http://www.w3.org/TR/2001/REC-SVG-20010904/DTD/svg10.dtd">
<svg version="1.0" xmlns="http://www.w3.org/2000/svg"
 width="96.000000pt" height="96.000000pt" viewBox="0 0 96.000000 96.000000"
 preserveAspectRatio="xMidYMid meet">

<g transform="translate(0.000000,96.000000) scale(0.100000,-0.100000)"
fill="#000000" stroke="none">
<path d="M157 722 l-117 -117 0 -138 c0 -133 1 -139 25 -162 l24 -25 311 0
311 0 24 25 25 24 0 231 0 231 -25 24 -24 25 -218 0 -218 0 -118 -118z m523
-162 l0 -200 -280 0 -280 0 0 100 0 100 100 0 100 0 0 100 0 100 180 0 180 0
0 -200z"/>
<path d="M840 440 l0 -240 -320 0 -320 0 0 -40 0 -40 335 0 336 0 24 25 25 24
0 256 0 255 -40 0 -40 0 0 -240z"/>
</g>
</svg>
